# xmcd
#
# Track frame offsets:
#  150
#  9552
#  26647
#  47200
#
# Disc length: 787 seconds
#
# Revision: 2
# Processed by: cddbd v1.5.1PL2 Copyright (c) Steve Scherf et al.
# Submitted via: Collectorz.com_Music_Collector 6.9
#
DISCID=2a031104
DTITLE=LALO SCHIFRIN - BULLITT
DYEAR=1997
DGENRE=
TTITLE0=BULLITT (Main Title) - Album Version
TTITLE1=BULLITT bitten by The Black Dog - mini driver jam
TTITLE2=BULLITT bitten by The Black Dog - cruise control
TTITLE3=BULLITT (End Title) - Album Version
EXTD=
EXTT0=
EXTT1=
EXTT2=
EXTT3=
PLAYORDER=
